<?xml version="1.0" encoding="utf-8"?>
<!-- Generator: Adobe Illustrator 24.1.1, SVG Export Plug-In . SVG Version: 6.00 Build 0)  -->
<svg version="1.1" id="Layer_1" xmlns="http://www.w3.org/2000/svg" xmlns:xlink="http://www.w3.org/1999/xlink" x="0px" y="0px"
	 viewBox="0 0 1941 1082.1" style="enable-background:new 0 0 1941 1082.1;" xml:space="preserve">
<style type="text/css">
	.st0{fill:#7986CB;}
	.st1{opacity:0.22;fill:#FFFFFF;enable-background:new    ;}
	.st2{fill:#BC6C6C;}
	.st3{opacity:0.71;fill:#FFFFFF;enable-background:new    ;}
</style>
<polygon class="st0" points="-3.3,-0.3 1944.3,-0.3 1934.7,1078.7 -3.3,1078.7 "/>
<path class="st1" d="M38.6,1081c0,0,347-896.5,742-654.8C1038.5,620.8,1299,634.6,1393,527.1c13.6-15.6,62.8-78.5,35.6-224.1
	c-4.3-44.9-15.2-204.3,79-269c33-22.7,67.1-25.5,104-28c89-6,182.6-12.1,335.9-6c-5.7,359.7-4.9,720.4-10.5,1080L38.6,1081z"/>
<path class="st1" d="M118,1079c38.3-66.3,91.7-168.7,173-257c168-182.4,358.6-187.5,544-123c0,0,599.2,317.6,643-194
	c7.3-84.8-33.9-343.6,52.1-402.5C1626,36.8,1839.5,88,1941,291c-1.3,263-2.7,526-4,789L118,1079z"/>
<path class="st2" d="M2416,388"/>
<path class="st3" d="M322,1082c38.3-66.3-23.9,19.2,57.4-69c168-182.4,358.6-187.5,544-123c0,0,599.2,317.6,643-194
	c7.3-84.8-33.9-343.6,52.1-402.5c95.9-65.7,221-48.4,322.5,154.5c-1.3,263-2.7,369-4,632C1330.7,1079.7,928.3,1082.3,322,1082z"/>
</svg>
